<svg width="21" height="20" viewBox="0 0 21 20" fill="none" xmlns="http://www.w3.org/2000/svg">
<path id="Vector" d="M13.1442 0.364401C12.6192 0.209588 12.0797 0.109061 11.5342 0.0644007C10.3274 -0.0783591 9.10435 0.0167669 7.93416 0.344401L7.86416 0.364401C5.76596 0.940549 3.91514 2.19004 2.59636 3.9207C1.27758 5.65137 0.563868 7.76735 0.565004 9.94321C0.56614 12.1191 1.28206 14.2343 2.60265 15.9636C3.92324 17.6929 5.77536 18.9404 7.87416 19.5144C8.64227 19.7319 9.4359 19.8462 10.2342 19.8544C10.3232 19.8704 10.4137 19.8771 10.5042 19.8744C11.3932 19.8755 12.2781 19.7544 13.1342 19.5144C15.2312 18.9385 17.0811 17.6901 18.4 15.9611C19.719 14.232 20.4339 12.1179 20.435 9.94321C20.4361 7.76856 19.7234 5.65365 18.4063 3.92323C17.0892 2.1928 15.2406 0.942534 13.1442 0.364401ZM12.8742 1.3244C14.169 1.68261 15.3664 2.32804 16.3775 3.21272C17.3886 4.0974 18.1872 5.19858 18.7142 6.4344H14.4542C13.945 4.47141 13.0095 2.64475 11.7142 1.0844C12.1062 1.13562 12.494 1.21584 12.8742 1.3244ZM10.5042 1.2344C11.8697 2.71467 12.8668 4.49628 13.4142 6.4344H7.57416C8.11874 4.49138 9.12381 2.70831 10.5042 1.2364V1.2344ZM13.6642 7.4344C13.984 9.08909 13.984 10.7897 13.6642 12.4444H7.34416C7.17501 11.6219 7.09124 10.7841 7.09416 9.9444C7.09196 9.10141 7.17573 8.2604 7.34416 7.4344H13.6642ZM8.06416 1.3444L8.13416 1.3244C8.51537 1.22239 8.90287 1.14555 9.29416 1.0944C7.99071 2.64778 7.05111 4.47299 6.54416 6.4364H2.29916C2.82416 5.21441 3.61346 4.12396 4.61028 3.2435C5.60711 2.36304 6.78669 1.71446 8.06416 1.3444ZM1.56416 9.9444C1.56418 9.09415 1.68884 8.24849 1.93416 7.4344H6.32416C6.17218 8.26245 6.0952 9.10252 6.09416 9.9444C6.09581 10.7829 6.17278 11.6196 6.32416 12.4444H1.93416C1.68839 11.6338 1.56371 10.7914 1.56416 9.9444ZM8.13416 18.5544C6.83808 18.1989 5.63934 17.5544 4.62791 16.6694C3.61647 15.7844 2.8186 14.6818 2.29416 13.4444H6.53416C7.04593 15.4124 7.99248 17.2406 9.30416 18.7944C8.90873 18.7437 8.51764 18.6634 8.13416 18.5544ZM7.57416 13.4444H13.4142C12.8739 15.3884 11.8761 17.1749 10.5042 18.6544C9.13307 17.1711 8.12946 15.3865 7.57416 13.4444ZM12.8742 18.5544C12.4884 18.6538 12.0979 18.7339 11.7042 18.7944C13.0031 17.235 13.9421 15.4083 14.4542 13.4444H18.7142C18.1885 14.681 17.3902 15.7829 16.379 16.6677C15.3677 17.5526 14.1696 18.1975 12.8742 18.5544ZM14.6742 12.4444C14.9844 10.7888 14.9844 9.08999 14.6742 7.4344H19.0642C19.3139 8.24751 19.4386 9.09383 19.4342 9.9444C19.4364 10.7908 19.3151 11.633 19.0742 12.4444H14.6742Z" fill="#111111"/>
</svg>
